<svg width="108" height="26" viewBox="0 0 108 26" fill="none" xmlns="http://www.w3.org/2000/svg">
<g opacity="0.5">
<path fill-rule="evenodd" clip-rule="evenodd" d="M27.4772 8.35868C26.8747 6.84219 25.9501 5.46085 24.7035 4.21468L27.314 1.60059C29.2527 3.54078 30.5885 5.73117 31.3214 8.17176C31.7768 9.71099 32.0038 11.3088 31.995 12.9139V12.9182C31.995 15.3627 31.5157 17.6089 30.5571 19.6569C29.7879 21.3119 28.7073 22.8373 27.3154 24.233L24.6992 21.6132C25.6201 20.7038 26.3948 19.6574 26.9955 18.5109C27.8664 16.8257 28.3013 14.9615 28.3004 12.9182V12.9139C28.3032 11.2814 28.0288 9.76303 27.4772 8.35868Z" fill="#00BEDF"/>
<path fill-rule="evenodd" clip-rule="evenodd" d="M22.876 6.08521C23.486 6.69345 24.0148 7.37806 24.4491 8.12198H24.4534C25.2764 9.54406 25.6878 11.1389 25.6878 12.9066V12.9152C25.6878 14.7499 25.2457 16.4009 24.3614 17.868H24.3571C23.9339 18.5585 23.4297 19.1959 22.8552 19.7668V19.7624L22.8509 19.7668L20.2325 17.1484C20.3989 16.9767 20.5566 16.7967 20.7048 16.6091V16.6048C21.5556 15.5504 21.9824 14.3205 21.9853 12.9152V12.9066C21.9853 11.2578 21.4024 9.85105 20.2368 8.68635L22.8595 6.05933C22.8653 6.06723 22.871 6.07586 22.876 6.08521Z" fill="#00BEDF"/>
<path fill-rule="evenodd" clip-rule="evenodd" d="M13.8279 10.7266C14.4061 10.1506 15.189 9.82715 16.0052 9.82715C16.8214 9.82715 17.6043 10.1506 18.1826 10.7266L18.1869 10.731C18.4767 11.0131 18.7057 11.3516 18.8596 11.7257C19.0136 12.0997 19.0892 12.5013 19.082 12.9058V12.9144C19.088 13.3185 19.0114 13.7196 18.8567 14.093C18.702 14.4664 18.4726 14.8042 18.1826 15.0856C18.1816 15.0882 18.1816 15.091 18.1826 15.0935C17.6034 15.6651 16.8222 15.9853 16.0084 15.9846C15.1947 15.984 14.414 15.6625 13.8358 15.0899L13.8315 15.0856C13.5421 14.8046 13.3131 14.4674 13.1585 14.0949C13.0038 13.7223 12.9268 13.3221 12.9321 12.9187V12.9058C12.9251 12.5024 13.0004 12.1018 13.1536 11.7286C13.3068 11.3554 13.5345 11.0174 13.8229 10.7353L13.8279 10.7266Z" fill="#00BEDF"/>
<path fill-rule="evenodd" clip-rule="evenodd" d="M6.30957 12.9066C6.30957 12.7887 6.30957 12.6715 6.31388 12.5557C6.39441 10.0303 7.33718 7.86484 9.14222 6.05933L11.7606 8.67773C10.595 9.8453 10.0136 11.2549 10.0165 12.9066V12.9195C10.0165 13.1036 10.0234 13.2847 10.0373 13.463V13.4674C10.1528 14.8832 10.728 16.1088 11.7628 17.144L11.7714 17.1527L9.14869 19.7711L9.14437 19.7668C7.25786 17.8769 6.31364 15.5945 6.31173 12.9195L6.30957 12.9066Z" fill="#00BEDF"/>
<path fill-rule="evenodd" clip-rule="evenodd" d="M0.138768 10.706C0.578763 7.22345 2.0931 4.18806 4.68179 1.59985L7.30019 4.21538C5.19655 6.3195 4.01269 8.8037 3.7486 11.668C3.71169 12.0763 3.69372 12.4933 3.69468 12.9189C3.69468 16.3124 4.89292 19.2121 7.28941 21.6182L7.29372 21.6225L4.67747 24.238L4.67316 24.2337C1.55773 21.1092 1.13465e-05 17.3376 1.13465e-05 12.9189C-0.000833597 12.1791 0.0455127 11.44 0.138768 10.706Z" fill="#00BEDF"/>
</g>
<path d="M3.19965 12.7982C3.19031 11.0892 3.53258 9.39644 4.20521 7.82526C5.50215 4.74977 7.94928 2.30263 11.0248 1.0057C12.5987 0.341951 14.2896 0 15.9978 0C17.7059 0 19.3968 0.341951 20.9707 1.0057C24.0462 2.30263 26.4934 4.74977 27.7903 7.82526C28.454 9.3992 28.796 11.0901 28.796 12.7982C28.796 14.5064 28.454 16.1973 27.7903 17.7712C26.4934 20.8467 24.0462 23.2939 20.9707 24.5908C19.3968 25.2545 17.7059 25.5965 15.9978 25.5965C14.2896 25.5965 12.5987 25.2545 11.0248 24.5908C7.94928 23.2939 5.50215 20.8467 4.20521 17.7712C3.53258 16.2001 3.19031 14.5073 3.19965 12.7982ZM6.63685 12.7982C6.6301 14.0442 6.87901 15.2784 7.36818 16.4244C8.32444 18.6706 10.1132 20.4594 12.3594 21.4156C13.5117 21.8984 14.7485 22.147 15.9978 22.147C17.247 22.147 18.4838 21.8984 19.6361 21.4156C21.8823 20.4594 23.6711 18.6706 24.6273 16.4244C25.1101 15.2721 25.3587 14.0353 25.3587 12.7861C25.3587 11.5368 25.1101 10.3 24.6273 9.14773C23.6711 6.90151 21.8823 5.11274 19.6361 4.15647C18.4838 3.67374 17.247 3.42513 15.9978 3.42513C14.7485 3.42513 13.5117 3.67374 12.3594 4.15647C10.1132 5.11274 8.32444 6.90151 7.36818 9.14773C6.87573 10.3013 6.62675 11.544 6.63685 12.7982ZM15.9978 21.2084C14.8731 21.2176 13.7588 20.9935 12.7251 20.5502C10.7141 19.6849 9.11108 18.0819 8.24576 16.0709C7.8113 15.0345 7.58754 13.922 7.58754 12.7982C7.58754 11.6745 7.8113 10.562 8.24576 9.52558C9.11108 7.51457 10.7141 5.91157 12.7251 5.04624C13.7615 4.61179 14.874 4.38803 15.9978 4.38803C17.1215 4.38803 18.234 4.61179 19.2704 5.04624C21.2814 5.91157 22.8844 7.51457 23.7498 9.52558C24.1842 10.562 24.408 11.6745 24.408 12.7982C24.408 13.922 24.1842 15.0345 23.7498 16.0709C22.8844 18.0819 21.2814 19.6849 19.2704 20.5502C18.2368 20.9935 17.1224 21.2176 15.9978 21.2084ZM10.8785 12.7982C10.874 13.4831 11.0109 14.1616 11.2807 14.7911C11.8008 16.0183 12.7777 16.9952 14.0049 17.5153C14.6358 17.7808 15.3133 17.9175 15.9978 17.9175C16.6822 17.9175 17.3597 17.7808 17.9906 17.5153C19.2178 16.9952 20.1947 16.0183 20.7148 14.7911C20.9803 14.1602 21.117 13.4827 21.117 12.7982C21.117 12.1138 20.9803 11.4363 20.7148 10.8054C20.1947 9.57817 19.2178 8.60128 17.9906 8.08122C17.3597 7.81573 16.6822 7.67896 15.9978 7.67896C15.3133 7.67896 14.6358 7.81573 14.0049 8.08122C12.7777 8.60128 11.8008 9.57817 11.2807 10.8054C11.0109 11.4349 10.874 12.1134 10.8785 12.7982Z" fill="#00BEDF"/>
<path d="M49.3691 24.3904C53.3199 24.3904 56.7807 22.3797 58.649 19.2555L53.9018 16.4716C53.0749 18.0492 51.3598 18.9772 49.3691 18.9772C45.9083 18.9772 43.642 16.5644 43.642 13.1C43.642 9.6355 45.9083 7.22276 49.3691 7.22276C51.3598 7.22276 53.0749 8.15074 53.9018 9.69737L58.649 6.94436C56.7807 3.82017 53.2893 1.80955 49.3691 1.80955C42.8763 1.80955 38.1904 6.72783 38.1904 13.1C38.1904 19.4721 42.8763 24.3904 49.3691 24.3904Z" fill="#00BEDF"/>
<path d="M63.2082 7.19182C64.8008 7.19182 66.1484 5.83079 66.1484 4.22229C66.1484 2.6138 64.8008 1.28369 63.2082 1.28369C61.6157 1.28369 60.2681 2.6138 60.2681 4.22229C60.2681 5.83079 61.6157 7.19182 63.2082 7.19182ZM60.6662 23.9264H65.7502V8.46006H60.6662V23.9264Z" fill="#00BEDF"/>
<path d="M73.7658 11.3368V8.46006H68.6818V23.9264H73.7658V17.5233C73.7658 14.461 76.3384 13.533 78.3598 13.8423V8.15073C76.3078 8.15073 74.3783 9.23338 73.7658 11.3368Z" fill="#00BEDF"/>
<path d="M85.3704 11.3368V8.46006H80.2864V23.9264H85.3704V17.5233C85.3704 14.461 87.943 13.533 89.9643 13.8423V8.15073C87.9124 8.15073 85.9829 9.23338 85.3704 11.3368Z" fill="#00BEDF"/>
<path d="M99.3332 24.3594C103.897 24.3594 107.51 20.8022 107.51 16.1932C107.51 11.5843 103.897 8.02701 99.3332 8.02701C94.8005 8.02701 91.1559 11.5843 91.1559 16.1932C91.1559 20.8022 94.8311 24.3594 99.3332 24.3594ZM99.3332 19.4102C97.5875 19.4102 96.2705 18.111 96.2705 16.1932C96.2705 14.2754 97.5875 12.9762 99.3332 12.9762C101.11 12.9762 102.426 14.2754 102.426 16.1932C102.426 18.111 101.11 19.4102 99.3332 19.4102Z" fill="#00BEDF"/>
</svg>
